HIERARCHY
ROOT Hips
{
  OFFSET 52.9591 94.0208 13.3675
  CHANNELS 6 Xposition Yposition Zposition Zrotation Xrotation Yrotation
  JOINT spine
  {
    OFFSET 0 7.80059 0.448573
    CHANNELS 3 Zrotation Xrotation Yrotation
    JOINT spine1
    {
      OFFSET 0 10.1364 0
      CHANNELS 3 Zrotation Xrotation Yrotation
      JOINT spine2
      {
        OFFSET 0 9.71251 0
        CHANNELS 3 Zrotation Xrotation Yrotation
        JOINT Neck
        {
          OFFSET 0 24.9361 1.18887
          CHANNELS 3 Zrotation Xrotation Yrotation
          JOINT Head
          {
            OFFSET 0 7.53384 0
            CHANNELS 3 Zrotation Xrotation Yrotation
            End Site
            {
              OFFSET 0 18.2361 -6.01402
            }
          }
        }
        JOINT RightShoulder
        {
          OFFSET -4.08965 10.4888 -0.569457
          CHANNELS 3 Zrotation Xrotation Yrotation
          JOINT RightArm
          {
            OFFSET 0 13.757 0
            CHANNELS 3 Zrotation Xrotation Yrotation
            JOINT RightArmRoll
            {
              OFFSET 0 6.94478 0
              CHANNELS 3 Zrotation Xrotation Yrotation
              JOINT RightForeArm
              {
                OFFSET 0 20.2277 0
                CHANNELS 3 Zrotation Xrotation Yrotation
                JOINT RightForeArmRoll
                {
                  OFFSET 0 7.79312 0
                  CHANNELS 3 Zrotation Xrotation Yrotation
                  JOINT RightHand
                  {
                    OFFSET 0 15.6391 0
                    CHANNELS 3 Zrotation Xrotation Yrotation
                    End Site
                    {
                      OFFSET 0 0 0
                    }
                  }
                }
              }
            }
          }
        }
        JOINT LeftShoulder
        {
          OFFSET 4.08965 10.4888 -0.569457
          CHANNELS 3 Zrotation Xrotation Yrotation
          JOINT LeftArm
          {
            OFFSET 0 13.757 0
            CHANNELS 3 Zrotation Xrotation Yrotation
            JOINT LeftArmRoll
            {
              OFFSET 0 6.94478 0
              CHANNELS 3 Zrotation Xrotation Yrotation
              JOINT LeftForeArm
              {
                OFFSET 0 20.2277 0
                CHANNELS 3 Zrotation Xrotation Yrotation
                JOINT LeftForeArmRoll
                {
                  OFFSET 0 7.79312 0
                  CHANNELS 3 Zrotation Xrotation Yrotation
                  JOINT LeftHand
                  {
                    OFFSET 0 15.6391 0
                    CHANNELS 3 Zrotation Xrotation Yrotation
                    End Site
                    {
                      OFFSET 0 0 0
                    }
                  }
                }
              }
            }
          }
        }
      }
    }
  }
  JOINT RightUpLeg
  {
    OFFSET -6.91416 -1.26788 -1.06358
    CHANNELS 3 Zrotation Xrotation Yrotation
    JOINT RightUpLegRoll
    {
      OFFSET 0 18.3378 0
      CHANNELS 3 Zrotation Xrotation Yrotation
      JOINT RightLeg
      {
        OFFSET 0 -22.7085 0
        CHANNELS 3 Zrotation Xrotation Yrotation
        JOINT RightLegRoll
        {
          OFFSET 0 22.7828 0
          CHANNELS 3 Zrotation Xrotation Yrotation
          JOINT RightFoot
          {
            OFFSET 0 18.9629 0
            CHANNELS 3 Zrotation Xrotation Yrotation
            JOINT RightToeBase
            {
              OFFSET 0 15.852 0
              CHANNELS 3 Zrotation Xrotation Yrotation
              End Site
              {
                OFFSET 0.00671906 7.67701 -0.884893
              }
            }
          }
        }
      }
    }
  }
  JOINT LeftUpLeg
  {
    OFFSET 6.91416 -1.26788 -1.06358
    CHANNELS 3 Zrotation Xrotation Yrotation
    JOINT LeftUpLegRoll
    {
      OFFSET 0 18.3379 0
      CHANNELS 3 Zrotation Xrotation Yrotation
      JOINT LeftLeg
      {
        OFFSET 0 22.7084 0
        CHANNELS 3 Zrotation Xrotation Yrotation
        JOINT LeftLegRoll
        {
          OFFSET 0 22.9934 0
          CHANNELS 3 Zrotation Xrotation Yrotation
          JOINT LeftFoot
          {
            OFFSET 0 18.7522 0
            CHANNELS 3 Zrotation Xrotation Yrotation
            JOINT LeftToeBase
            {
              OFFSET 0 15.852 0
              CHANNELS 3 Zrotation Xrotation Yrotation
              End Site
              {
                OFFSET -0.030112 7.67701 -0.884892
              }
            }
          }
        }
      }
    }
  }
}
MOTION
Frames: 5
Frame Time: 0.00208333
53.695 94.0538 14.1157 0.805738 -6.943 1.85163 -0.378457 -2.3056 0.384682 -0.752032 -0.611081 0.808345 -0.761842 1.03384 0.821046 -2.092 39.5844 -1.51308 7.01596 -6.94861 -1.38026 31.023 -13.3163 -9.55882 -15.9301 48.1025 115.229 -6.62086e-031 -7.95139e-015 -4.77083e-015 9.58024 74.401 -4.99244 3.90692e-006 -4.90297e-006 -3 8.02889 -4.95159 0.697764 -28.3041 -12.0371 8.30684 -1.0643 54.5312 -103.144 -2.94453e-006 1.09356e-007 1.82252e-007 14.8341 72.7699 -18.2665 4.04526e-006 -1.31499e-006 3 -8.02938 -4.95156 -0.697692 175.182 -2.7156 0.541458 -180 7.01576e-015 179.055 -179.045 13.0865 178.899 -3.16293e-006 -2.1062e-006 0.203554 -18.2233 72.0133 23.1038 8.13649 25.2327 -3.48774 -179.756 -6.83495 6.4881 4.54188e-006 -4.6773e-006 -1.41782 -4.5684 -8.05823 -0.168712 -2.79087e-006 2.9299e-007 -0.212061 24.1907 71.2234 -22.9322 -8.13649 25.2327 3.48774 
53.6998 94.0545 14.111 0.806841 -6.96062 1.85509 -0.378829 -2.3008 0.383459 -0.753314 -0.60149 0.806082 -0.763098 1.04343 0.818806 -2.10043 39.569 -1.50985 7.02135 -6.93931 -1.38059 30.9806 -13.3322 -9.5778 -16.2709 48.1288 115.363 -1.59028e-014 -1.27222e-014 1.59028e-015 10.0151 74.7434 -5.38487 3.90692e-006 -4.90297e-006 -3 8.02889 -4.95159 0.697764 -28.16 -12.0809 8.35827 -0.867415 54.7098 -103.397 -2.94453e-006 1.09355e-007 1.82252e-007 14.8011 73.0964 -18.3301 4.04526e-006 -1.31499e-006 3 -8.02938 -4.95156 -0.697692 175.177 -2.74341 0.560219 -180 7.01575e-015 179.055 -179.069 13.0702 178.905 -3.16293e-006 -2.1062e-006 0.201176 -18.2193 72.0055 23.0957 8.13649 25.2327 -3.48774 -179.754 -6.86488 6.48463 4.54188e-006 -4.6773e-006 -1.41802 -4.56841 -8.0398 -0.167331 -2.79087e-006 2.9299e-007 -0.2119 24.1846 71.2175 -22.9256 -8.13649 25.2327 3.48774 
53.6962 94.0564 14.106 0.807292 -6.97753 1.85764 -0.379085 -2.29658 0.382365 -0.754261 -0.593036 0.80396 -0.764021 1.05189 0.816701 -2.10661 39.5621 -1.50681 7.02329 -6.93609 -1.38036 30.9371 -13.3464 -9.59505 -16.599 48.1581 115.485 -7.94503e-031 -4.77083e-015 -9.54166e-015 10.4533 75.0782 -5.78352 3.90692e-006 -4.90297e-006 -3 8.02889 -4.95159 0.697764 -28.0339 -12.1174 8.40138 -0.658379 54.8665 -103.628 -2.94453e-006 1.09356e-007 1.82252e-007 14.7737 73.3693 -18.3806 4.04526e-006 -1.31499e-006 3 -8.02938 -4.95156 -0.697692 175.175 -2.76507 0.573413 -180 7.01575e-015 179.054 -179.085 13.0616 178.91 -3.16293e-006 -2.1062e-006 0.199718 -18.2202 72.0005 23.091 8.13649 25.2327 -3.48774 -179.752 -6.89106 6.4808 4.54188e-006 -4.6773e-006 -1.41813 -4.5688 -8.02514 -0.166401 -2.79087e-006 2.9299e-007 -0.211743 24.1797 71.2124 -22.9197 -8.13649 25.2327 3.48774 
53.6964 94.0574 14.1041 0.807019 -6.99367 1.85922 -0.379214 -2.29299 0.38142 -0.754842 -0.585851 0.801999 -0.764578 1.05907 0.814752 -2.11014 39.565 -1.504 7.02115 -6.93968 -1.37949 30.8924 -13.3585 -9.61028 -16.913 48.1909 115.593 -1.90833e-014 -2.70347e-014 6.36111e-015 10.8942 75.4054 -6.18751 3.90692e-006 -4.90297e-006 -3 8.02889 -4.95159 0.697764 -27.9287 -12.1454 8.4348 -0.435086 54.9987 -103.835 -2.94453e-006 1.09356e-007 1.82252e-007 14.752 73.5824 -18.4157 4.04526e-006 -1.31499e-006 3 -8.02938 -4.95156 -0.697692 175.175 -2.77975 0.58026 -180 7.01575e-015 179.054 -179.093 13.0621 178.912 -3.16293e-006 -2.1062e-006 0.199313 -18.2266 71.9987 23.09 8.13649 25.2327 -3.48774 -179.749 -6.91294 6.47655 4.54188e-006 -4.6773e-006 -1.41812 -4.56966 -8.01488 -0.165997 -2.79087e-006 2.9299e-007 -0.211591 24.1762 71.2082 -22.9148 -8.13649 25.2327 3.48774 
53.689 94.0557 14.0999 0.805988 -7.0091 1.85977 -0.379167 -2.28998 0.380615 -0.754984 -0.57983 0.800168 -0.764696 1.06509 0.812924 -2.11128 39.5773 -1.50146 7.01472 -6.95033 -1.37814 30.8465 -13.369 -9.62381 -17.2158 48.2269 115.687 -1.90833e-014 7.95139e-015 -6.36111e-015 11.3413 75.7269 -6.60111 3.90692e-006 -4.90297e-006 -3 8.02889 -4.95159 0.697764 -27.844 -12.1651 8.45853 -0.199584 55.1062 -104.013 -2.94453e-006 1.09356e-007 1.82252e-007 14.7326 73.7284 -18.4293 4.04526e-006 -1.31499e-006 3 -8.02938 -4.95156 -0.697692 175.177 -2.78684 0.580328 -180 7.01575e-015 179.053 -179.092 13.0724 178.912 -3.16293e-006 -2.1062e-006 0.200054 -18.2394 72.0004 23.0932 8.13649 25.2327 -3.48774 -179.746 -6.93073 6.47189 4.54188e-006 -4.6773e-006 -1.41797 -4.57092 -8.0089 -0.166131 -2.79087e-006 2.9299e-007 -0.211441 24.1741 71.2049 -22.9107 -8.13649 25.2327 3.48774 
